<?xml version="1.0" encoding="UTF-8"?>
<svg xmlns="http://www.w3.org/2000/svg" xmlns:xlink="http://www.w3.org/1999/xlink" width="1080" height="1080" viewBox="0 0 1080 1080" role="img" aria-label="DataCost graphic on a deep navy background reading: South African USSD codes. Balance checks, bundles and self-service. A simple phone keypad illustration appears on the right.">
  <defs>
    <radialGradient id="glow" cx="84%" cy="47%" r="52%">
      <stop offset="0" stop-color="#0c62a0" stop-opacity="0.42"/>
      <stop offset="1" stop-color="#031636" stop-opacity="0"/>
    </radialGradient>
    <linearGradient id="bottomLine" x1="0" y1="0" x2="1" y2="0">
      <stop offset="0" stop-color="#0bc8e8"/>
      <stop offset="1" stop-color="#8bdf47"/>
    </linearGradient>
  </defs>
  <rect width="1080" height="1080" fill="#031636"/>
  <rect width="1080" height="1080" fill="url(#glow)"/>
  <g opacity="0.16" stroke="#0bc8e8" fill="none">
    <path d="M620 132 C768 166 922 126 1080 180"/>
    <path d="M610 844 C784 742 914 830 1080 696"/>
    <path d="M684 918 C824 826 938 894 1080 792"/>
    <circle cx="1000" cy="186" r="5" fill="#8bdf47" stroke="none"/>
    <circle cx="650" cy="842" r="5" fill="#0bc8e8" stroke="none"/>
  </g>
  <image href="../assets/datacost-facebook-profile-linkedin-aligned-1080-v2.png" x="70" y="62" width="118" height="118" preserveAspectRatio="xMidYMid meet"/>
  <text x="208" y="111" fill="#ffffff" font-size="40" font-weight="900">Data<tspan fill="#0bc8e8">Cost</tspan></text>
  <text x="208" y="148" fill="#b8c9de" font-size="24" font-weight="500">South Africa</text>
  <text x="80" y="270" fill="#a0f399" font-size="22" font-weight="900" letter-spacing="5">SAVE THESE SHORTCUTS</text>
  <text x="78" y="385" fill="#ffffff" font-size="76" font-weight="900" letter-spacing="-2">South African</text>
<text x="78" y="477" fill="#0bc8e8" font-size="76" font-weight="900" letter-spacing="-2">USSD codes</text>
  <text x="82" y="595" fill="#dce8f5" font-size="30" font-weight="500">Balance checks • bundles</text>
<text x="82" y="641" fill="#dce8f5" font-size="30" font-weight="500">• self-service</text>
  <g>
      <rect x="724" y="280" width="236" height="430" rx="42" fill="#071f48" stroke="#14c8e8" stroke-width="8"/>
      <rect x="758" y="330" width="168" height="76" rx="16" fill="#031636" stroke="#1c5f89" stroke-width="3"/>
      <text x="842" y="383" text-anchor="middle" fill="#a0f399" font-size="44" font-weight="800">*  #</text>
      <circle cx="782" cy="468" r="18" fill="#0bc8e8" opacity="0.82"/><circle cx="842" cy="468" r="18" fill="#0bc8e8" opacity="0.82"/><circle cx="902" cy="468" r="18" fill="#0bc8e8" opacity="0.82"/><circle cx="782" cy="534" r="18" fill="#0bc8e8" opacity="0.74"/><circle cx="842" cy="534" r="18" fill="#0bc8e8" opacity="0.74"/><circle cx="902" cy="534" r="18" fill="#0bc8e8" opacity="0.74"/><circle cx="782" cy="600" r="18" fill="#0bc8e8" opacity="0.6599999999999999"/><circle cx="842" cy="600" r="18" fill="#8bdf47" opacity="0.6599999999999999"/><circle cx="902" cy="600" r="18" fill="#0bc8e8" opacity="0.6599999999999999"/>
      <rect x="804" y="674" width="76" height="9" rx="5" fill="#d8f7ff" opacity="0.7"/>
    </g>
  <rect x="72" y="938" width="936" height="2" fill="url(#bottomLine)" opacity="0.9"/>
  <text x="78" y="1005" fill="#ffffff" font-size="28" font-weight="800">datacost.co.za</text>
  <circle cx="294" cy="995" r="8" fill="#8bdf47"/>
  <text x="1002" y="1005" text-anchor="end" fill="#9eb2ca" font-size="20" font-weight="600">Independent consumer information</text>
</svg>